<?xml version="1.0" encoding="UTF-8"?><svg xmlns="http://www.w3.org/2000/svg" xmlns:xlink="http://www.w3.org/1999/xlink" contentScriptType="text/ecmascript" width="375" zoomAndPan="magnify" contentStyleType="text/css" viewBox="0 0 375 374.999991" height="374.999991" preserveAspectRatio="xMidYMid meet" version="1.0"><path fill="rgb(27.449036%, 74.119568%, 52.938843%)" d="M 197.316406 72.484375 L 88.152344 181.648438 L 79.667969 173.164062 L 188.832031 64 Z M 197.316406 72.484375 " fill-opacity="1" fill-rule="nonzero"/><path fill="rgb(27.449036%, 74.119568%, 52.938843%)" d="M 298.425781 202.421875 L 189.261719 311.589844 L 180.777344 303.101562 L 289.941406 193.9375 Z M 298.425781 202.421875 " fill-opacity="1" fill-rule="nonzero"/><path fill="rgb(27.449036%, 74.119568%, 52.938843%)" d="M 74.441406 179.472656 L 183.609375 288.640625 L 175.121094 297.125 L 65.957031 187.957031 Z M 74.441406 179.472656 " fill-opacity="1" fill-rule="nonzero"/><path fill="rgb(27.449036%, 74.119568%, 52.938843%)" d="M 203.042969 78.242188 L 312.746094 187.945312 L 304.257812 196.429688 L 194.558594 86.726562 Z M 203.042969 78.242188 " fill-opacity="1" fill-rule="nonzero"/><path fill="rgb(27.449036%, 74.119568%, 52.938843%)" d="M 102.480469 178.785156 L 183.5625 259.867188 L 175.074219 268.351562 L 93.996094 187.269531 Z M 102.480469 178.785156 " fill-opacity="1" fill-rule="nonzero"/><path fill="rgb(27.449036%, 74.119568%, 52.938843%)" d="M 203.226562 107.148438 L 284.304688 188.226562 L 275.820312 196.710938 L 194.738281 115.632812 Z M 203.226562 107.148438 " fill-opacity="1" fill-rule="nonzero"/><path fill="rgb(27.449036%, 74.119568%, 52.938843%)" d="M 197.148438 101.128906 L 117.128906 181.152344 L 108.640625 172.667969 L 188.664062 92.644531 Z M 197.148438 101.128906 " fill-opacity="1" fill-rule="nonzero"/><path fill="rgb(27.449036%, 74.119568%, 52.938843%)" d="M 269.132812 203.335938 L 189.640625 282.832031 L 181.15625 274.34375 L 260.648438 194.851562 Z M 269.132812 203.335938 " fill-opacity="1" fill-rule="nonzero"/><path fill="rgb(27.449036%, 74.119568%, 52.938843%)" d="M 196.601562 130.78125 L 145.726562 181.660156 L 137.242188 173.171875 L 188.117188 122.296875 Z M 196.601562 130.78125 " fill-opacity="1" fill-rule="nonzero"/><path fill="rgb(27.449036%, 74.119568%, 52.938843%)" d="M 240.351562 203.160156 L 189.476562 254.035156 L 180.992188 245.550781 L 231.867188 194.675781 Z M 240.351562 203.160156 " fill-opacity="1" fill-rule="nonzero"/><path fill="rgb(27.449036%, 74.119568%, 52.938843%)" d="M 131.546875 178.804688 L 184.011719 231.265625 L 175.527344 239.75 L 123.0625 187.289062 Z M 131.546875 178.804688 " fill-opacity="1" fill-rule="nonzero"/><path fill="rgb(27.449036%, 74.119568%, 52.938843%)" d="M 202.1875 136.332031 L 254.652344 188.796875 L 246.164062 197.28125 L 193.699219 144.816406 Z M 202.1875 136.332031 " fill-opacity="1" fill-rule="nonzero"/><path fill="rgb(27.449036%, 74.119568%, 52.938843%)" d="M 196.164062 159.167969 L 178.144531 177.191406 L 169.660156 168.703125 L 187.679688 150.683594 Z M 196.164062 159.167969 " fill-opacity="1" fill-rule="nonzero"/><path fill="rgb(27.449036%, 74.119568%, 52.938843%)" d="M 207.570312 207.039062 L 189.546875 225.0625 L 181.0625 216.574219 L 199.082031 198.554688 Z M 207.570312 207.039062 " fill-opacity="1" fill-rule="nonzero"/><path fill="rgb(27.449036%, 74.119568%, 52.938843%)" d="M 159.710938 178.558594 L 178.792969 197.644531 L 170.308594 206.128906 L 151.222656 187.046875 Z M 159.710938 178.558594 " fill-opacity="1" fill-rule="nonzero"/><path fill="rgb(27.449036%, 74.119568%, 52.938843%)" d="M 206.503906 169.5 L 225.585938 188.582031 L 217.101562 197.066406 L 198.019531 177.984375 Z M 206.503906 169.5 " fill-opacity="1" fill-rule="nonzero"/><path fill="rgb(27.449036%, 74.119568%, 52.938843%)" d="M 257.625 12.175781 L 203.566406 66.234375 L 195.082031 57.746094 L 249.140625 3.6875 Z M 257.625 12.175781 " fill-opacity="1" fill-rule="nonzero"/><path fill="rgb(27.449036%, 74.119568%, 52.938843%)" d="M 271.863281 26.414062 L 217.804688 80.472656 L 209.320312 71.988281 L 263.378906 17.929688 Z M 271.863281 26.414062 " fill-opacity="1" fill-rule="nonzero"/><path fill="rgb(27.449036%, 74.119568%, 52.938843%)" d="M 286.417969 40.964844 L 232.359375 95.027344 L 223.871094 86.539062 L 277.929688 32.480469 Z M 286.417969 40.964844 " fill-opacity="1" fill-rule="nonzero"/><path fill="rgb(27.449036%, 74.119568%, 52.938843%)" d="M 300.28125 55.050781 L 246.222656 109.109375 L 237.738281 100.625 L 291.796875 46.566406 Z M 300.28125 55.050781 " fill-opacity="1" fill-rule="nonzero"/><path fill="rgb(27.449036%, 74.119568%, 52.938843%)" d="M 121.0625 362.816406 L 175.121094 308.757812 L 183.605469 317.242188 L 129.546875 371.300781 Z M 121.0625 362.816406 " fill-opacity="1" fill-rule="nonzero"/><path fill="rgb(27.449036%, 74.119568%, 52.938843%)" d="M 106.824219 348.578125 L 160.882812 294.519531 L 169.367188 303.003906 L 115.308594 357.0625 Z M 106.824219 348.578125 " fill-opacity="1" fill-rule="nonzero"/><path fill="rgb(27.449036%, 74.119568%, 52.938843%)" d="M 92.269531 334.023438 L 146.328125 279.964844 L 154.8125 288.449219 L 100.753906 342.507812 Z M 92.269531 334.023438 " fill-opacity="1" fill-rule="nonzero"/><path fill="rgb(27.449036%, 74.119568%, 52.938843%)" d="M 77.964844 319.941406 L 132.023438 265.882812 L 140.511719 274.367188 L 86.453125 328.425781 Z M 77.964844 319.941406 " fill-opacity="1" fill-rule="nonzero"/><path fill="rgb(27.449036%, 74.119568%, 52.938843%)" d="M 364.664062 255.777344 L 310.605469 201.71875 L 319.089844 193.230469 L 373.148438 247.289062 Z M 364.664062 255.777344 " fill-opacity="1" fill-rule="nonzero"/><path fill="rgb(27.449036%, 74.119568%, 52.938843%)" d="M 350.425781 270.015625 L 296.367188 215.957031 L 304.851562 207.472656 L 358.910156 261.53125 Z M 350.425781 270.015625 " fill-opacity="1" fill-rule="nonzero"/><path fill="rgb(27.449036%, 74.119568%, 52.938843%)" d="M 335.871094 284.570312 L 281.8125 230.511719 L 290.296875 222.023438 L 344.359375 276.082031 Z M 335.871094 284.570312 " fill-opacity="1" fill-rule="nonzero"/><path fill="rgb(27.449036%, 74.119568%, 52.938843%)" d="M 321.566406 298.652344 L 267.507812 244.59375 L 275.996094 236.109375 L 330.054688 290.167969 Z M 321.566406 298.652344 " fill-opacity="1" fill-rule="nonzero"/><path fill="rgb(27.449036%, 74.119568%, 52.938843%)" d="M 14.023438 119.214844 L 68.082031 173.273438 L 59.597656 181.757812 L 5.535156 127.699219 Z M 14.023438 119.214844 " fill-opacity="1" fill-rule="nonzero"/><path fill="rgb(27.449036%, 74.119568%, 52.938843%)" d="M 28.261719 104.976562 L 82.320312 159.035156 L 73.835938 167.519531 L 19.777344 113.460938 Z M 28.261719 104.976562 " fill-opacity="1" fill-rule="nonzero"/><path fill="rgb(27.449036%, 74.119568%, 52.938843%)" d="M 42.816406 90.421875 L 96.875 144.480469 L 88.386719 152.964844 L 34.328125 98.90625 Z M 42.816406 90.421875 " fill-opacity="1" fill-rule="nonzero"/><path fill="rgb(27.449036%, 74.119568%, 52.938843%)" d="M 56.679688 76.335938 L 110.738281 130.398438 L 102.253906 138.882812 L 48.195312 84.824219 Z M 56.679688 76.335938 " fill-opacity="1" fill-rule="nonzero"/></svg>